<svg width="359" height="281" viewBox="0 0 359 281" fill="none" xmlns="http://www.w3.org/2000/svg">
<path d="M308 133C308 199.002 253.206 253 185 253C116.794 253 62 199.002 62 133C62 66.9977 116.794 13 185 13C253.206 13 308 66.9977 308 133Z" stroke="#F77D6B" stroke-width="26"/>
<path d="M280.26 183.4C284.33 182.49 287.92 181.64 290.68 180.93C305.36 177.18 309.78 172.32 310.23 165.83C310.96 155.47 307.08 155.39 300.39 160.02C297.608 161.994 294.561 163.567 291.34 164.69C292.459 163.411 293.392 161.98 294.11 160.44C295.11 157.86 293.75 156.21 292.86 155.77C292.16 155.43 291.45 157.22 289.03 159.2C285.91 161.73 283.39 162.2 280.81 165.73C279.823 167.029 278.404 167.934 276.81 168.28C275.35 168.61 251.38 175.17 240.15 177.1C233.56 168.71 227.44 159.76 220.47 150.85C209.74 137.11 204.64 135.19 198.62 136.28L193.39 153.52C193.39 153.52 228.73 195.14 229.15 195.66C230.35 197.282 232.031 198.484 233.954 199.096C235.876 199.708 237.943 199.699 239.86 199.07C255.08 194.6 271.19 187.59 280.26 183.4Z" fill="#FFA8A7"/>
<path d="M197.22 132.81C209.76 133.36 213.48 140.39 219.92 148.19C226.36 155.99 240.38 176 240.38 176L274.61 168.84C274.61 168.84 273.2 178.67 277.61 184.59C277.61 184.59 259.45 193.75 248.45 197.96C234.55 203.3 233.64 202.08 231.13 199.78C228.62 197.48 198.13 162.97 198.13 162.97L197.22 132.81Z" fill="#3F3D56"/>
<path d="M55.72 156C58.97 146.14 62.56 145.73 66.99 152.55C68.8178 155.431 71.0393 158.043 73.59 160.31C73.0251 158.698 72.6885 157.015 72.59 155.31C72.59 152.54 74.53 151.52 75.52 151.46C76.3 151.46 76.27 153.33 77.77 156.08C79.69 159.61 81.84 161.01 82.9 165.24C83.3 166.83 84.34 169.99 85.67 170.93C92.47 175.71 104.83 181.6 117.12 186.35C121.48 177.14 127.23 165.65 131.61 157.6C139.95 142.3 145.47 140.6 151.54 141.32L157.72 158.23C157.72 158.23 124.72 201.76 124.38 202.3C121.85 205.86 116.67 208.3 112.64 206.65C101.13 201.93 92.58 193.65 82.81 186.99C77.01 183.05 71.53 179.99 68.03 177.37C55.92 168.35 53.68 162.18 55.72 156Z" fill="#FFA8A7"/>
<path d="M145 236.93C154.05 243.52 195.08 250.83 214.12 236.93C214.12 236.93 213.68 183.75 212.18 155.6C212.11 154.32 212.03 153.08 211.9 151.88C211.9 151.48 211.8 151.08 211.76 150.68C211.54 148.993 211.206 147.322 210.76 145.68C210.69 145.41 210.6 145.14 210.52 144.87C210.33 144.26 210.14 143.67 209.89 143.08C209.77 142.77 209.64 142.46 209.5 142.16C209.36 141.86 209.24 141.59 209.08 141.32C209.067 141.266 209.043 141.215 209.01 141.17C208.87 140.9 208.71 140.63 208.56 140.37C208.41 140.11 208.22 139.8 208.02 139.52C207.82 139.24 207.65 138.99 207.46 138.75C207.27 138.51 207.02 138.21 206.78 137.95C206.563 137.698 206.333 137.458 206.09 137.23L205.59 136.76L205.09 136.35C204.88 136.16 204.64 135.99 204.41 135.82C203.648 135.286 202.845 134.811 202.01 134.4C201.78 134.29 201.54 134.17 201.3 134.08C201.242 134.057 201.185 134.031 201.13 134L200.27 133.68C199.789 133.491 199.298 133.328 198.8 133.19C198.293 133.05 197.763 132.92 197.21 132.8C196.59 132.8 195.91 132.8 195.21 132.8H193.71L192.09 132.86C184.97 133.17 174.75 134.32 166.55 135.37L164.95 135.59L163.54 135.76C157.91 136.5 153.74 137.11 153.1 137.21H153C151.16 137.68 149.45 138.12 148.07 138.53C144.31 139.64 147.07 138.69 146.28 142.33C143.85 153.01 146.68 191.86 146.68 191.86L145 236.93Z" fill="#2F2E41"/>
<path d="M161.37 103.59C161.37 103.59 164.3 117.34 165.47 119.59C166.255 120.981 167.543 122.019 169.07 122.49L168.86 112.82L161.37 103.59Z" fill="#2F2E41"/>
<path d="M165 83.9C163.976 83.7845 162.939 83.9046 161.968 84.2512C160.998 84.5979 160.119 85.1618 159.4 85.9C157 88.34 158.37 96 161.37 103.59L166.88 104.23L165 83.9Z" fill="#2F2E41"/>
<path d="M168.53 104.23C167.43 104.89 165.85 102.77 164.53 101.34C163.21 99.91 158.72 97.97 156.53 102.64C154.34 107.31 158.53 113.7 161.99 114.8C167.99 116.7 168.93 112.8 168.93 112.8L169.27 135C175.59 146.45 196.98 140.59 188.96 133V127.37C191.993 127.585 195.037 127.585 198.07 127.37C202.51 126.68 204.33 123.61 205.68 118.8C207.84 111.08 208.68 104.85 206.83 89.67C204.83 73.04 185.47 72.87 175.02 79.44C164.57 86.01 168.53 104.23 168.53 104.23Z" fill="#FFA8A7"/>
<path d="M166 74.81C169.664 73.245 173.491 72.0913 177.41 71.37C185.85 69.54 194.41 67.85 202.15 63.96C203.043 63.3814 204.086 63.0788 205.15 63.09C207.15 63.36 208.07 65.82 208.15 67.86C208.22 69.7616 207.969 71.6613 207.41 73.48C208.024 72.892 208.844 72.5696 209.694 72.5827C210.544 72.5958 211.355 72.9434 211.95 73.55C212.516 74.1879 212.929 74.9463 213.157 75.7676C213.386 76.5889 213.425 77.4516 213.27 78.29C212.77 82.07 209.88 85.22 206.45 86.9C203.02 88.58 199.14 88.99 195.33 89.1C190.006 89.2597 184.681 88.8609 179.44 87.91C178.183 87.594 176.88 87.4992 175.59 87.63C174.946 87.702 174.335 87.9541 173.827 88.3574C173.32 88.7606 172.936 89.2987 172.72 89.91C172.16 92.01 171.57 106.3 168.64 106.36C168.09 106.36 166.01 102.77 164.64 101.49C162.94 99.87 161.22 87.63 160.92 85.37C160.883 85.194 160.804 85.0294 160.69 84.89C158.77 82.2 161.02 77.67 163.39 76.19C164.233 75.6798 165.104 75.219 166 74.81Z" fill="#2F2E41"/>
<path d="M161.74 85.08C161.397 85.4825 160.979 85.8136 160.508 86.0543C160.037 86.295 159.524 86.4406 158.997 86.4828C158.47 86.5251 157.94 86.4631 157.437 86.3005C156.934 86.1379 156.468 85.8778 156.065 85.535C155.662 85.1923 155.331 84.7736 155.091 84.3029C154.85 83.8322 154.704 83.3187 154.662 82.7917C154.62 82.2648 154.682 81.7346 154.845 81.2316C155.007 80.7286 155.267 80.2625 155.61 79.86L161.74 85.08Z" fill="#2F2E41"/>
<path d="M188.94 127.39C188.94 127.39 179.04 126.39 175.57 124.59C173.532 123.529 171.862 121.877 170.78 119.85C171.304 121.877 172.229 123.777 173.5 125.44C176.04 128.68 188.94 131.07 188.94 131.07V127.39Z" fill="#F28F8F"/>
<path d="M186.56 101.75C186.546 102.142 186.417 102.522 186.189 102.841C185.961 103.161 185.645 103.406 185.278 103.547C184.912 103.688 184.512 103.718 184.129 103.633C183.745 103.548 183.396 103.352 183.123 103.07C182.85 102.787 182.666 102.431 182.595 102.045C182.523 101.659 182.567 101.261 182.72 100.899C182.873 100.538 183.129 100.23 183.456 100.013C183.784 99.796 184.167 99.6803 184.56 99.68C184.829 99.6799 185.095 99.7338 185.342 99.8387C185.589 99.9435 185.813 100.097 186 100.29C186.186 100.484 186.332 100.712 186.428 100.963C186.525 101.214 186.569 101.482 186.56 101.75Z" fill="#2F2E41"/>
<path d="M184.46 94.26L180.21 96.6C179.907 96.0167 179.842 95.3386 180.028 94.7083C180.215 94.078 180.638 93.5445 181.21 93.22C181.49 93.0676 181.798 92.9735 182.116 92.9434C182.433 92.9134 182.754 92.948 183.057 93.0452C183.361 93.1424 183.642 93.3002 183.883 93.509C184.124 93.7178 184.32 93.9733 184.46 94.26V94.26Z" fill="#2F2E41"/>
<path d="M188.05 115.47L192.58 117.17C192.481 117.474 192.322 117.755 192.112 117.996C191.902 118.238 191.646 118.434 191.359 118.574C191.071 118.714 190.758 118.795 190.439 118.811C190.12 118.828 189.8 118.78 189.5 118.67C188.891 118.428 188.399 117.96 188.129 117.363C187.859 116.766 187.83 116.087 188.05 115.47Z" fill="#F28F8F"/>
<path d="M204.27 95.91L200.4 92.91C200.581 92.6481 200.813 92.4258 201.083 92.2567C201.352 92.0876 201.654 91.9753 201.968 91.9266C202.283 91.8779 202.604 91.8939 202.912 91.9736C203.22 92.0533 203.509 92.195 203.76 92.39C204.282 92.7978 204.627 93.3916 204.722 94.0475C204.817 94.7035 204.655 95.3707 204.27 95.91V95.91Z" fill="#2F2E41"/>
<path d="M203.08 101.19C203.066 101.582 202.937 101.962 202.709 102.281C202.481 102.601 202.165 102.846 201.798 102.987C201.432 103.128 201.032 103.158 200.649 103.073C200.265 102.988 199.916 102.792 199.643 102.51C199.37 102.227 199.186 101.871 199.115 101.485C199.043 101.099 199.087 100.701 199.24 100.339C199.393 99.978 199.649 99.6697 199.976 99.4528C200.304 99.236 200.687 99.1203 201.08 99.12C201.349 99.1199 201.615 99.1738 201.862 99.2787C202.109 99.3835 202.333 99.5371 202.52 99.7303C202.706 99.9235 202.852 100.152 202.948 100.403C203.045 100.654 203.089 100.922 203.08 101.19Z" fill="#2F2E41"/>
<path d="M194.6 99.77L195.26 111.71L201.49 109.58L194.6 99.77Z" fill="#F28F8F"/>
<path d="M153.75 137.2C139.1 137.43 135.3 146.06 130.98 155.2C126.66 164.34 115.7 185 115.7 185L88.12 172.53C86.5378 177.452 83.2505 181.647 78.85 184.36C78.85 184.36 91.85 195.29 103.07 203.3C112.56 210.08 118.07 213.6 121.72 211.17C124.42 209.37 151.34 174.17 151.34 174.17C158.2 163.47 159.66 145.3 153.75 137.2Z" fill="#3F3D56"/>
<path d="M200.4 106.59L198.83 105.79L197.29 103.59C197.539 103.485 197.809 103.44 198.078 103.459C198.348 103.478 198.609 103.561 198.84 103.7C199.54 104.2 200.4 106.59 200.4 106.59Z" fill="#C29CAA"/>
<path opacity="0.65" d="M200.4 106.59L198.83 105.79L197.29 103.59C197.539 103.485 197.809 103.44 198.078 103.459C198.348 103.478 198.609 103.561 198.84 103.7C199.54 104.2 200.4 106.59 200.4 106.59Z" fill="black"/>
<path d="M215 99.72C214.902 101.352 214.274 102.907 213.211 104.149C212.147 105.391 210.707 106.252 209.11 106.6L206.64 107.02C205.558 107.219 204.459 107.306 203.36 107.28H203.03C202.85 107.28 202.67 107.28 202.5 107.28C202.194 107.25 201.89 107.2 201.59 107.13C201.433 107.1 201.279 107.056 201.13 107C200.991 106.961 200.857 106.907 200.73 106.84C200.672 106.82 200.617 106.789 200.57 106.75C200.502 106.717 200.439 106.677 200.38 106.63C200.28 106.546 200.195 106.444 200.13 106.33L199.28 104.59C199.084 104.243 198.789 103.963 198.433 103.784C198.076 103.606 197.675 103.539 197.28 103.59L195.52 103.9C195.084 104.014 194.679 104.223 194.333 104.512C193.988 104.8 193.71 105.162 193.52 105.57C193.52 105.57 193.15 106.49 192.68 107.57C192.21 108.65 189.29 110.06 186.17 110.57L183.7 111.01C183.199 111.084 182.691 111.084 182.19 111.01C181.909 110.991 181.63 110.941 181.36 110.86L180.98 110.75L180.74 110.65C180.524 110.567 180.316 110.463 180.12 110.34C179.45 110.07 168.68 105.69 167.2 102.16C164.84 96.48 174.53 90.63 178.02 89.52C178.42 89.3575 178.835 89.2369 179.26 89.16L204.7 84.8C205.967 84.5474 207.282 84.7947 208.37 85.49C209.02 85.9 211.42 87.32 212.42 87.92C212.509 87.9603 212.593 88.0107 212.67 88.07C212.81 88.15 212.95 88.25 213.09 88.34C213.137 88.3716 213.181 88.4085 213.22 88.45C213.36 88.56 213.49 88.68 213.62 88.8C213.777 88.9582 213.921 89.1288 214.05 89.31C214.149 89.4347 214.236 89.5686 214.31 89.71C214.434 89.9071 214.541 90.1145 214.63 90.33C214.71 90.52 214.77 90.71 214.83 90.9C214.883 91.0797 214.92 91.2638 214.94 91.45C214.949 91.4929 214.949 91.5372 214.94 91.58C214.955 91.7897 214.955 92.0003 214.94 92.21C215.053 94.7367 215.073 97.24 215 99.72Z" fill="#C29CAA"/>
<g opacity="0.2">
<path opacity="0.2" d="M215 99.72C214.902 101.352 214.274 102.907 213.211 104.149C212.147 105.391 210.707 106.252 209.11 106.6L206.64 107.02C205.558 107.219 204.459 107.306 203.36 107.28H203.03C202.85 107.28 202.67 107.28 202.5 107.28C202.194 107.25 201.89 107.2 201.59 107.13C201.433 107.1 201.279 107.056 201.13 107C200.991 106.961 200.857 106.907 200.73 106.84C200.672 106.82 200.617 106.789 200.57 106.75C200.502 106.717 200.439 106.677 200.38 106.63C200.28 106.546 200.195 106.444 200.13 106.33L199.28 104.59C199.084 104.243 198.789 103.963 198.433 103.784C198.076 103.606 197.675 103.539 197.28 103.59L195.52 103.9C195.084 104.014 194.679 104.223 194.333 104.512C193.988 104.8 193.71 105.162 193.52 105.57C193.52 105.57 193.15 106.49 192.68 107.57C192.21 108.65 189.29 110.06 186.17 110.57L183.7 111.01C183.199 111.084 182.691 111.084 182.19 111.01C181.909 110.991 181.63 110.941 181.36 110.86L180.98 110.75L180.74 110.65C180.524 110.567 180.316 110.463 180.12 110.34C179.45 110.07 168.68 105.69 167.2 102.16C164.84 96.48 174.53 90.63 178.02 89.52C178.42 89.3575 178.835 89.2369 179.26 89.16L204.7 84.8C205.967 84.5474 207.282 84.7947 208.37 85.49C209.02 85.9 211.42 87.32 212.42 87.92C212.509 87.9603 212.593 88.0107 212.67 88.07C212.81 88.15 212.95 88.25 213.09 88.34C213.137 88.3716 213.181 88.4085 213.22 88.45C213.36 88.56 213.49 88.68 213.62 88.8C213.777 88.9582 213.921 89.1288 214.05 89.31C214.149 89.4347 214.236 89.5686 214.31 89.71C214.434 89.9071 214.541 90.1145 214.63 90.33C214.71 90.52 214.77 90.71 214.83 90.9C214.883 91.0797 214.92 91.2638 214.94 91.45C214.949 91.4929 214.949 91.5372 214.94 91.58C214.955 91.7897 214.955 92.0003 214.94 92.21C215.053 94.7367 215.073 97.24 215 99.72Z" fill="black"/>
</g>
<path d="M212.42 87.92C211.407 87.3985 210.25 87.2296 209.13 87.44L183.69 91.93C182.164 92.2612 180.779 93.0591 179.727 94.2132C178.675 95.3672 178.009 96.82 177.82 98.37L170.52 94.16C172.723 92.2188 175.257 90.688 178 89.64V89.64C178.4 89.4775 178.815 89.3569 179.24 89.28L204.7 84.8C205.967 84.5474 207.282 84.7947 208.37 85.49C209 85.9 211.42 87.32 212.42 87.92Z" fill="#C29CAA"/>
<path opacity="0.35" d="M212.42 87.92C211.407 87.3985 210.25 87.2296 209.13 87.44L183.69 91.93C182.164 92.2612 180.779 93.0591 179.727 94.2132C178.675 95.3672 178.009 96.82 177.82 98.37L170.52 94.16C172.723 92.2188 175.257 90.688 178 89.64V89.64C178.4 89.4775 178.815 89.3569 179.24 89.28L204.7 84.8C205.967 84.5474 207.282 84.7947 208.37 85.49C209 85.9 211.42 87.32 212.42 87.92Z" fill="white"/>
<path d="M215 92.23C215.06 94.7234 215.06 97.2234 215 99.73C214.903 101.36 214.274 102.913 213.211 104.152C212.147 105.391 210.707 106.248 209.11 106.59L206.64 107.03C203.51 107.58 200.64 107.24 200.13 106.29L199.28 104.55C199.084 104.203 198.789 103.923 198.433 103.744C198.076 103.566 197.675 103.499 197.28 103.55L195.51 103.87C195.073 103.98 194.666 104.187 194.319 104.477C193.973 104.766 193.696 105.129 193.51 105.54L192.66 107.54C192.19 108.66 189.28 110.02 186.16 110.54L183.69 110.98C182.977 111.132 182.239 111.123 181.53 110.953C180.822 110.783 180.16 110.456 179.594 109.996C179.028 109.537 178.572 108.957 178.26 108.298C177.948 107.639 177.787 106.919 177.79 106.19C177.73 103.7 177.73 101.19 177.79 98.7C177.889 97.0679 178.519 95.5129 179.584 94.2724C180.649 93.0319 182.091 92.1742 183.69 91.83L209.13 87.35C209.848 87.1991 210.592 87.2125 211.304 87.3893C212.017 87.5661 212.68 87.9018 213.245 88.3711C213.809 88.8404 214.26 89.4313 214.564 90.0995C214.868 90.7678 215.017 91.4961 215 92.23V92.23Z" fill="#C29CAA"/>
<path opacity="0.5" d="M215 99.72C214.902 101.352 214.274 102.907 213.211 104.149C212.147 105.391 210.707 106.252 209.11 106.6L206.64 107.02C205.559 107.219 204.459 107.306 203.36 107.28H203.03C202.85 107.28 202.67 107.28 202.5 107.28C202.194 107.25 201.89 107.2 201.59 107.13C201.433 107.1 201.279 107.056 201.13 107C200.992 106.961 200.857 106.907 200.73 106.84C200.672 106.82 200.617 106.789 200.57 106.75C200.502 106.717 200.439 106.677 200.38 106.63C200.28 106.546 200.195 106.444 200.13 106.33L199.28 104.59C199.084 104.243 198.789 103.963 198.433 103.784C198.076 103.606 197.675 103.539 197.28 103.59L195.52 103.9C195.084 104.014 194.679 104.223 194.333 104.512C193.988 104.8 193.71 105.162 193.52 105.57C193.52 105.57 193.15 106.49 192.68 107.57C192.21 108.65 189.29 110.06 186.17 110.57L183.7 111.01C183.199 111.084 182.691 111.084 182.19 111.01C181.909 110.991 181.63 110.941 181.36 110.86L180.98 110.75L180.74 110.65C180.524 110.567 180.316 110.463 180.12 110.34C179.41 109.903 178.824 109.291 178.418 108.562C178.012 107.834 177.799 107.014 177.8 106.18C177.74 103.68 177.74 101.18 177.8 98.68C177.899 97.0479 178.529 95.4928 179.594 94.2524C180.659 93.0119 182.101 92.1541 183.7 91.81L209.14 87.32C210.26 87.1096 211.417 87.2785 212.43 87.8C212.519 87.8403 212.603 87.8907 212.68 87.95C212.82 88.03 212.96 88.13 213.1 88.22C213.147 88.2516 213.191 88.2885 213.23 88.33C213.37 88.44 213.5 88.56 213.63 88.68C213.787 88.8382 213.931 89.0087 214.06 89.19C214.159 89.3147 214.246 89.4486 214.32 89.59C214.444 89.7871 214.551 89.9945 214.64 90.21C214.72 90.4 214.78 90.59 214.84 90.78C214.893 90.9597 214.93 91.1438 214.95 91.33C214.959 91.3729 214.959 91.4172 214.95 91.46C214.965 91.6697 214.965 91.8803 214.95 92.09C215.057 94.6967 215.073 97.24 215 99.72Z" fill="white"/>
<g opacity="0.7">
<path opacity="0.7" d="M215 92.23C215.015 92.0203 215.015 91.8097 215 91.6C215.009 91.5572 215.009 91.5129 215 91.47C214.98 91.2838 214.943 91.0997 214.89 90.92V90.92C214.83 90.73 214.77 90.54 214.69 90.35C214.601 90.1345 214.494 89.9271 214.37 89.73C214.296 89.5886 214.209 89.4547 214.11 89.33C213.981 89.1488 213.837 88.9782 213.68 88.82C213.55 88.7 213.42 88.58 213.28 88.47C213.245 88.4314 213.204 88.3978 213.16 88.37L197.87 103.58C198.171 103.621 198.457 103.733 198.706 103.907C198.955 104.081 199.158 104.312 199.3 104.58L200.15 106.32C200.215 106.434 200.3 106.536 200.4 106.62C200.459 106.667 200.522 106.707 200.59 106.74C200.637 106.779 200.692 106.81 200.75 106.83C200.877 106.897 201.011 106.951 201.15 106.99C201.299 107.046 201.453 107.09 201.61 107.12C201.91 107.19 202.214 107.24 202.52 107.27C202.69 107.27 202.87 107.27 203.05 107.27H203.38C204.048 107.285 204.716 107.255 205.38 107.18L215.08 97.49C215.07 95.74 215.06 94 215 92.23Z" fill="#C29CAA"/>
<path opacity="0.7" d="M202.94 88.54L180.71 110.76L180.95 110.86L181.33 110.97C181.6 111.051 181.879 111.101 182.16 111.12C182.661 111.194 183.169 111.194 183.67 111.12L185.28 110.83L208.53 87.59L202.94 88.54Z" fill="#C29CAA"/>
<path opacity="0.7" d="M187.12 91.32L177.77 100.68C177.77 102.55 177.77 104.42 177.77 106.3C177.781 107.159 178.008 108.001 178.43 108.75L197.73 89.45L187.12 91.32Z" fill="#C29CAA"/>
</g>
<path d="M171.9 101.14C171.916 101.275 171.901 101.412 171.857 101.541C171.812 101.67 171.739 101.786 171.643 101.883C171.546 101.979 171.43 102.052 171.301 102.097C171.172 102.141 171.035 102.156 170.9 102.14C170.61 102.07 170.353 101.902 170.171 101.666C169.99 101.43 169.894 101.138 169.9 100.84C169.884 100.705 169.899 100.568 169.943 100.439C169.988 100.31 170.061 100.194 170.157 100.097C170.254 100.001 170.37 99.9279 170.499 99.8833C170.628 99.8388 170.765 99.824 170.9 99.84C171.189 99.9122 171.445 100.08 171.626 100.316C171.808 100.552 171.904 100.842 171.9 101.14Z" fill="#2F2E41"/>
<g opacity="0.5">
<path opacity="0.5" d="M210.1 87.89C210.823 87.8894 211.536 88.0608 212.18 88.39C212.254 88.4268 212.324 88.4704 212.39 88.52C212.521 88.5964 212.648 88.6798 212.77 88.77H212.82H212.87L213.22 89.08C213.363 89.2254 213.494 89.3826 213.61 89.55C213.691 89.6488 213.762 89.7561 213.82 89.87V89.87C213.922 90.0404 214.012 90.2175 214.09 90.4C214.149 90.5435 214.199 90.6904 214.24 90.84V90.84V90.92C214.287 91.0661 214.317 91.2171 214.33 91.37V91.52C214.344 91.7064 214.344 91.8936 214.33 92.08C214.4 94.56 214.4 97.08 214.33 99.55C214.269 101.068 213.717 102.525 212.755 103.701C211.794 104.877 210.476 105.709 209 106.07L206.53 106.5C205.612 106.659 204.682 106.743 203.75 106.75H203.32H203.01H202.53C202.241 106.718 201.953 106.668 201.67 106.6C201.528 106.572 201.388 106.535 201.25 106.49C201.153 106.458 201.06 106.418 200.97 106.37H200.9L200.8 106.31C200.754 106.269 200.714 106.222 200.68 106.17L199.83 104.43C199.63 104.004 199.313 103.644 198.917 103.391C198.52 103.138 198.06 103.002 197.59 103C197.46 102.99 197.33 102.99 197.2 103L195.43 103.31C194.903 103.44 194.413 103.687 193.995 104.033C193.578 104.38 193.244 104.816 193.02 105.31L192.17 107.31C191.82 108.14 189.23 109.46 186.06 110.02L183.6 110.45C183.309 110.5 183.015 110.526 182.72 110.53C182.553 110.54 182.387 110.54 182.22 110.53C181.97 110.508 181.723 110.464 181.48 110.4L181.18 110.3L181.05 110.25H180.93C180.741 110.18 180.559 110.09 180.39 109.98C179.755 109.589 179.231 109.042 178.869 108.391C178.506 107.739 178.317 107.005 178.32 106.26C178.27 103.79 178.27 101.26 178.32 98.79C178.424 97.2844 179.012 95.8528 179.996 94.7085C180.98 93.5641 182.307 92.7684 183.78 92.44L209.23 88C209.517 87.9486 209.808 87.9218 210.1 87.92V87.89ZM210.1 87.39C209.765 87.3907 209.431 87.4174 209.1 87.47L183.66 91.96C182.061 92.3041 180.619 93.1619 179.554 94.4024C178.489 95.6429 177.859 97.1979 177.76 98.83C177.7 101.34 177.7 103.83 177.76 106.33C177.759 107.164 177.972 107.984 178.378 108.712C178.784 109.441 179.37 110.053 180.08 110.49C180.276 110.613 180.484 110.717 180.7 110.8L180.94 110.9L181.32 111.01C181.59 111.091 181.869 111.141 182.15 111.16C182.33 111.171 182.51 111.171 182.69 111.16C183.025 111.164 183.36 111.137 183.69 111.08L186.16 110.64C189.28 110.1 192.16 108.74 192.67 107.64C193.18 106.54 193.51 105.64 193.51 105.64C193.7 105.232 193.978 104.87 194.323 104.582C194.669 104.293 195.074 104.084 195.51 103.97L197.27 103.66C197.37 103.65 197.47 103.65 197.57 103.66C197.917 103.664 198.258 103.758 198.557 103.933C198.857 104.109 199.106 104.359 199.28 104.66L200.13 106.4C200.195 106.514 200.28 106.616 200.38 106.7C200.439 106.747 200.502 106.787 200.57 106.82C200.617 106.859 200.672 106.89 200.73 106.91C200.857 106.977 200.992 107.031 201.13 107.07C201.279 107.126 201.433 107.17 201.59 107.2C201.89 107.27 202.194 107.32 202.5 107.35C202.67 107.35 202.85 107.35 203.03 107.35H203.77C204.733 107.344 205.693 107.254 206.64 107.08L209.11 106.66C210.717 106.309 212.164 105.44 213.228 104.186C214.292 102.932 214.915 101.363 215 99.72C215.06 97.22 215.06 94.7233 215 92.23C215.015 92.0203 215.015 91.8097 215 91.6C215.009 91.5572 215.009 91.5129 215 91.47C214.98 91.2838 214.943 91.0997 214.89 90.92V90.92C214.83 90.73 214.77 90.54 214.69 90.35C214.601 90.1345 214.494 89.9271 214.37 89.73C214.296 89.5886 214.209 89.4547 214.11 89.33C213.981 89.1488 213.837 88.9782 213.68 88.82C213.55 88.7 213.42 88.58 213.28 88.47C213.241 88.4285 213.197 88.3916 213.15 88.36C213.01 88.27 212.87 88.17 212.73 88.09C212.653 88.0307 212.569 87.9803 212.48 87.94C211.763 87.5688 210.967 87.3767 210.16 87.38L210.1 87.39Z" fill="black"/>
</g>
<path d="M177.79 106.3L177.66 100.91C177.66 100.01 177.59 99.13 177.66 98.2C177.767 97.2804 178.053 96.3905 178.5 95.58C179.38 93.9381 180.821 92.6674 182.56 92C183.433 91.7332 184.326 91.5359 185.23 91.41L187.88 90.93L198.49 89.12C202.03 88.5333 205.577 87.9767 209.13 87.45C205.61 88.17 202.087 88.8633 198.56 89.53L188 91.45L185.35 91.9C184.474 92.0132 183.608 92.1938 182.76 92.44C181.119 93.0704 179.747 94.2509 178.88 95.78C178.441 96.5376 178.152 97.3729 178.03 98.24C177.93 99.1 177.98 100.02 177.95 100.91L177.79 106.3Z" fill="white"/>
<g opacity="0.3">
<path opacity="0.3" d="M358.1 63.08V192.54C355.88 206.09 348.91 219.4 337.1 231.62C332.84 236.003 328.246 240.048 323.36 243.72C318.587 247.246 313.619 250.502 308.48 253.47C288.9 264.81 265.71 272.79 241.07 277.47C237.15 278.223 233.19 278.89 229.19 279.47V149.47C256.89 144.99 282.99 136.74 304.85 124.71C331.98 109.71 348.53 91.2 354.53 71.84C355.669 68.9788 356.594 66.0374 357.3 63.04C357.331 62.9563 357.388 62.8847 357.463 62.8356C357.537 62.7864 357.625 62.7624 357.715 62.7668C357.804 62.7713 357.889 62.804 357.959 62.8603C358.028 62.9167 358.077 62.9936 358.1 63.08V63.08Z" fill="#C29CAA"/>
</g>
<path d="M228.62 280.09V149L229.07 148.93C257.41 144.35 283.51 135.81 304.55 124.23C330.66 109.85 347.75 91.7 353.95 71.75V71.3H354.13C355.196 68.5637 356.071 65.757 356.75 62.9C356.84 62.7117 356.986 62.5562 357.169 62.4553C357.352 62.3545 357.561 62.3133 357.769 62.3375C357.976 62.3618 358.17 62.4503 358.325 62.5906C358.479 62.7309 358.586 62.916 358.63 63.12V192.54C356.34 206.61 349.21 219.86 337.45 231.99C333.171 236.394 328.553 240.456 323.64 244.14C318.851 247.686 313.863 250.954 308.7 253.93C289.56 265 266.82 273.12 241.13 278C237.22 278.75 233.21 279.42 229.23 280L228.62 280.09ZM229.69 149.88V278.88C233.45 278.33 237.23 277.69 240.93 276.99C266.5 272.12 289.13 264.06 308.17 252.99C313.289 250.034 318.24 246.795 323 243.29C327.861 239.647 332.435 235.635 336.68 231.29C348.29 219.29 355.32 206.29 357.57 192.49V64.05C356.883 66.7518 356.024 69.4072 355 72C348.71 92.23 331.45 110.6 305.07 125.12C284 136.71 258 145.27 229.69 149.88Z" fill="#C29CAA"/>
<path d="M259.21 247.19C258.926 247.19 258.654 247.077 258.453 246.877C258.253 246.676 258.14 246.404 258.14 246.12V169.66C258.149 169.431 258.23 169.211 258.372 169.031C258.514 168.851 258.709 168.721 258.93 168.66C265.26 166.96 271.1 165.15 276.78 163.11C276.944 163.046 277.122 163.024 277.297 163.047C277.471 163.07 277.638 163.136 277.78 163.24C277.922 163.339 278.038 163.47 278.118 163.623C278.198 163.777 278.24 163.947 278.24 164.12V240.58C278.237 240.799 278.168 241.012 278.041 241.191C277.914 241.369 277.736 241.505 277.53 241.58C271.78 243.64 265.89 245.47 259.53 247.18C259.424 247.196 259.317 247.2 259.21 247.19V247.19ZM260.28 170.48V244.72C265.82 243.21 271.01 241.59 276.07 239.79V165.6C271 167.37 265.84 169 260.28 170.48V170.48Z" fill="white"/>
<path d="M293.61 234.9C293.404 234.904 293.201 234.845 293.03 234.73C292.879 234.634 292.755 234.501 292.669 234.343C292.583 234.186 292.539 234.009 292.54 233.83V157.37C292.538 157.16 292.596 156.955 292.708 156.777C292.819 156.6 292.98 156.458 293.17 156.37C298.208 154.112 303.125 151.592 307.9 148.82C308.99 148.24 310 147.62 310.97 147.01C311.131 146.907 311.319 146.852 311.51 146.852C311.701 146.852 311.889 146.907 312.05 147.01C312.218 147.1 312.36 147.234 312.458 147.398C312.557 147.562 312.609 147.749 312.61 147.94V224.4C312.611 224.583 312.564 224.763 312.475 224.922C312.385 225.082 312.256 225.215 312.1 225.31C311.1 225.94 310.05 226.6 308.93 227.19C304.091 229.99 299.107 232.534 294 234.81C293.877 234.864 293.744 234.895 293.61 234.9ZM294.68 158.07V232.18C298.86 230.25 303.2 228 307.9 225.3C308.8 224.83 309.64 224.3 310.47 223.8V149.8C309.97 150.1 309.47 150.39 308.93 150.67C303.88 153.62 299.2 156 294.68 158.07V158.07Z" fill="white"/>
<path d="M327.94 213.87C327.784 213.872 327.63 213.838 327.49 213.77C327.3 213.682 327.14 213.541 327.03 213.363C326.92 213.185 326.864 212.979 326.87 212.77V136.34C326.871 136.183 326.906 136.028 326.974 135.887C327.041 135.745 327.139 135.62 327.26 135.52C330.406 132.92 333.411 130.152 336.26 127.23C339.456 123.997 342.379 120.505 345 116.79C345.13 116.602 345.316 116.461 345.532 116.387C345.748 116.313 345.982 116.309 346.199 116.377C346.417 116.446 346.608 116.582 346.743 116.766C346.878 116.949 346.95 117.172 346.95 117.4V193.86C346.949 194.081 346.883 194.296 346.76 194.48C344.081 198.285 341.098 201.867 337.84 205.19C334.924 208.164 331.853 210.981 328.64 213.63C328.442 213.789 328.194 213.874 327.94 213.87V213.87ZM329.01 136.87V210.5C331.61 208.27 334.06 205.99 336.3 203.69C339.399 200.531 342.241 197.13 344.8 193.52V120.68C342.634 123.488 340.296 126.16 337.8 128.68C335.012 131.553 332.075 134.276 329 136.84L329.01 136.87Z" fill="white"/>
<g opacity="0.3">
<path opacity="0.3" d="M242.11 260.45L285.6 180.11L320.38 225.3C320.38 225.3 305.72 246.28 242.11 260.45Z" fill="#C29CAA"/>
</g>
<g opacity="0.3">
<path opacity="0.3" d="M161.33 265.28C121.62 263.16 83 253.73 52.55 237C18.33 218.15 0.919996 193.55 0.339996 168.86V166.4L0 83.18C0 77.24 10.46 94.08 32.37 111.35C32.89 111.77 33.37 112.16 33.94 112.57C35.16 113.51 36.41 114.43 37.71 115.35C42.4991 118.742 47.4808 121.854 52.63 124.67C83 141.36 121.44 150.78 161 152.93L161.33 265.28Z" fill="#C29CAA"/>
</g>
<path d="M1.14 83.3C3.35317 85.1962 5.43465 87.241 7.37 89.42C14.9288 97.6001 23.0845 105.208 31.77 112.18C32.15 112.49 32.54 112.79 32.94 113.09L33.35 113.42C34.52 114.32 35.76 115.24 37.16 116.23C41.9783 119.635 46.9864 122.764 52.16 125.6C81.16 141.6 119.36 151.6 159.95 153.94L160.27 264.15C119.87 261.84 81.85 251.88 53.09 236.05C20.35 218 2 194.15 1.41 168.84V166.38L1.1 83.3H1.14ZM0.639999 82C0.229999 82 0.0299988 82.39 0.0299988 83.22L0.339996 166.42V168.88C0.919996 193.57 18.34 218.17 52.55 237.02C82.96 253.77 121.62 263.2 161.33 265.32L161 152.93C121.45 150.78 83 141.36 52.67 124.67C47.5208 121.854 42.5391 118.742 37.75 115.35C36.45 114.43 35.2 113.51 33.98 112.57C33.45 112.16 32.98 111.77 32.41 111.35C13.56 96.5 3.17 82 0.639999 82Z" fill="#C29CAA"/>
<path d="M122.93 249.32H122.79C122.46 249.32 90.29 244.66 58.99 228.77C23.13 210.57 9.04999 182.36 8.90999 182.07C8.8355 181.925 8.79773 181.763 8.79999 181.6V160C8.79781 159.78 8.8681 159.566 8.99999 159.39L32.51 126.15C32.6239 125.996 32.7761 125.874 32.9515 125.797C33.1269 125.72 33.3194 125.69 33.51 125.71C33.6991 125.729 33.8796 125.798 34.0326 125.911C34.1857 126.023 34.3056 126.175 34.38 126.35L63.55 194.35L61 181.81C60.9602 181.605 60.9806 181.393 61.0587 181.2C61.1368 181.006 61.2692 180.84 61.44 180.72L85 164.17C85.1187 164.081 85.2556 164.02 85.4009 163.99C85.5461 163.961 85.6961 163.964 85.84 164C85.9847 164.031 86.1215 164.091 86.2419 164.177C86.3623 164.263 86.4638 164.373 86.54 164.5L123.9 227.26C123.998 227.427 124.05 227.617 124.05 227.81V248.25C124.053 248.391 124.027 248.532 123.974 248.663C123.921 248.794 123.843 248.913 123.743 249.013C123.643 249.113 123.524 249.191 123.393 249.244C123.262 249.297 123.121 249.323 122.98 249.32H122.93ZM10.93 181.32C12.29 183.93 26.4 209.81 59.93 226.84C87.48 240.84 115.7 245.98 121.83 246.98V228.1L85.21 166.58L63.21 182.07L67.64 204.07C67.6656 204.315 67.6057 204.562 67.4703 204.768C67.335 204.974 67.1325 205.128 66.8973 205.202C66.662 205.276 66.4083 205.266 66.1792 205.175C65.9501 205.084 65.7596 204.916 65.64 204.7L33.16 129L10.94 160.36L10.93 181.32Z" fill="white"/>
<path d="M122.52 186C121.849 185.996 121.179 185.929 120.52 185.8C114.07 184.54 108.83 177.48 108.83 170.07C108.764 168.28 109.094 166.497 109.798 164.849C110.502 163.202 111.561 161.73 112.9 160.54C113.997 159.626 115.286 158.972 116.671 158.626C118.057 158.279 119.502 158.25 120.9 158.54C127.34 159.8 132.58 166.86 132.58 174.27C132.648 176.06 132.318 177.844 131.614 179.491C130.91 181.139 129.85 182.611 128.51 183.8C126.834 185.214 124.713 185.993 122.52 186V186ZM118.91 160.54C117.211 160.525 115.561 161.11 114.25 162.19C113.157 163.182 112.296 164.402 111.727 165.764C111.159 167.125 110.897 168.596 110.96 170.07C110.96 176.51 115.43 182.62 120.96 183.7C122.048 183.935 123.174 183.923 124.256 183.663C125.338 183.403 126.348 182.903 127.21 182.2C128.303 181.208 129.164 179.988 129.733 178.626C130.301 177.265 130.563 175.794 130.5 174.32C130.5 167.88 126.04 161.77 120.5 160.69C119.976 160.589 119.444 160.535 118.91 160.53V160.54Z" fill="white"/>
<g opacity="0.3">
<path opacity="0.3" d="M7.82001 108.61C7.82001 108.61 17.57 125.74 37.73 133.19V123.51C18.4 114.37 7.82001 97.26 7.82001 97.26V108.61Z" fill="#C29CAA"/>
</g>
<g opacity="0.3">
<path opacity="0.3" d="M7.82001 126.15C7.82001 126.15 17.57 143.28 37.73 150.73V141.05C18.4 131.91 7.82001 114.8 7.82001 114.8V126.15Z" fill="#C29CAA"/>
</g>
<g opacity="0.3">
<path opacity="0.3" d="M7.82001 143.69C7.82001 143.69 17.57 160.82 37.73 168.27V158.59C18.4 149.45 7.82001 132.34 7.82001 132.34V143.69Z" fill="#C29CAA"/>
</g>
</svg>
